#!OML:ASF E:/inclinewalkrobotboard/Project1/Captureday1/Session1/subject1.ASF
:FULLY-SPECIFIED
:DEGREES
38
root 0 0 0 1.4268410902939324 -3.539198907979757 1.8901895582743358
lowerback 11.967026668571767 0.893101806571424 -0.09766664643269729
upperback -4.43438008642547 1.1195627275168958 -0.6293586129467189
thorax -11.55419402198179 0.5142723696003988 -0.8689194828006911
lowerneck -6.095657515411587 1.6528980305532002 4.623965712195734
upperneck 18.447406337326136 3.15699886389423 -8.269526865331859
head 6.779626576234955 1.1634914170850355 -3.189089024214831
rclavicle -1.744968360814432E-16 -9.70509231994098E-16
rhumerus 22.22435435272684 15.948458834243445 -46.54264231109009
rradius 74.31090355998316
rwrist 27.8913199499906
rhand -34.855570756262615 -59.75781144622168
rfingers 7.12502
rthumb -8.01551114324103 -89.57031108221814
lclavicle -1.7274000515458757E-16 -9.49003161182609E-16
lhumerus 22.793879638454452 -12.795845709674497 43.631556126781966
lradius 71.32121414979045
lwrist -23.63716260294884
lhand -45.336840727031024 -73.19732782337485
lfingers 7.12502
lthumb -18.094062366324216 -43.97920222298089
rfemur -25.58561677299276 -2.1461247597124453 16.699653352244866
rtibia 54.67957109504699
rfoot -27.30444874026564 -16.456402529368642
rtoes -17.657246652760275
lfemur -21.810340205275622 1.2338359941954453 -18.179147384439947
ltibia 48.65237360186934
lfoot -23.737635567944118 -3.6050152933710335
ltoes -15.427578774859022
39
root 0 0 0 1.4270430087475616 -3.539716968398837 1.8896902694681652
lowerback 11.96709120291933 0.8934042276904186 -0.09699283185460383
upperback -4.434647590557524 1.1200326817558188 -0.6294510053979029
thorax -11.554488437406397 0.5144846369509845 -0.8694706819569041
lowerneck -6.095228156291864 1.6530283635735838 4.624333082427385
upperneck 18.44737509170245 3.1572330834100284 -8.269871446657072
head 6.779550925911909 1.1635916283952312 -3.18924346998838
rclavicle -1.74366926977615E-16 -9.704695784527541E-16
rhumerus 22.226542037099364 15.949893806626742 -46.54132256075929
rradius 74.31291832253774
rwrist 27.89231039642936
rhand -34.85629230812964 -59.76122518108662
rfingers 7.12502
rthumb -8.016215685156112 -89.57372848560428
lclavicle -1.727491634152884E-16 -9.490021241468034E-16
lhumerus 22.793067532779315 -12.79562491448324 43.632131417084054
lradius 71.32056266279002
lwrist -23.6367400317628
lhand -45.33655616057583 -73.19587947502298
lfingers 7.12502
lthumb -18.093805199102654 -43.977870433592145
rfemur -25.590932523560525 -2.1486539675415983 16.695883480739592
rtibia 54.68544948183273
rfoot -27.31107294274004 -16.459997087296834
rtoes -17.66477300666203
lfemur -21.804788278137977 1.2323996400217068 -18.180167425228788
ltibia 48.64429563600638
lfoot -23.73149533061713 -3.604444836782459
ltoes -15.422663722628425
40
root 0 0 0 1.4271151487924527 -3.539699842537633 1.8898269927115197
lowerback 11.967113263967018 0.8933932984041342 -0.09707768147612339
upperback -4.4347329925875405 1.1200034006790784 -0.6294975026675825
thorax -11.554601474706068 0.5144726692318055 -0.8694682407499851
lowerneck -6.095039861657952 1.65311992743038 4.624447771487935
upperneck 18.44735195053594 3.1573670605099102 -8.27003573682217
head 6.779508524733105 1.1636477041799265 -3.1892959298564567
rclavicle -1.7434142685829703E-16 -9.704608282219306E-16
rhumerus 22.226887070970058 15.950120043255117 -46.54111469478207
rradius 74.3132420092855
rwrist 27.892465464657864
rhand -34.856406619926815 -59.76176490907186
rfingers 7.12502
rthumb -8.016328370140739 -89.57426094165837
lclavicle -1.727680824202789E-16 -9.490132482821775E-16
lhumerus 22.791826720900513 -12.795314051385686 43.63299283980477
lradius 71.31958648621361
lwrist -23.63608921730355
lhand -45.33613774904654 -73.19372716673763
lfingers 7.12502
lthumb -18.09340951104072 -43.975739192503895
rfemur -25.59628651276472 -2.1511987678851856 16.692104378281954
rtibia 54.69136338526026
rfoot -27.3176854646119 -16.463606354816733
rtoes -17.67230603483063
lfemur -21.799892918020774 1.2311609391348148 -18.181088162704338
ltibia 48.6372994095413
lfoot -23.726189961943163 -3.6039988858786955
ltoes -15.418460672721215
41
root 0 0 0 1.4263140585388765 -3.5373816138673853 1.8921156380380146
lowerback 11.96680268364198 0.8920296893685384 -0.1001691316002824
upperback -4.433606924338639 1.1178611697135405 -0.6290861923325818
thorax -11.553356462862403 0.5134968049004079 -0.866940197356641
lowerneck -6.096871762488817 1.6525972796788027 4.622813767551035
upperneck 18.447436259406594 3.1564064837127996 -8.268590646502894
head 6.779800628383306 1.1632507585453076 -3.1886095900674243
rclavicle -1.749642695373291E-16 -9.707002618627184E-16
rhumerus 22.21367073679354 15.941944905677301 -46.549428349734754
rradius 74.30161236067894
rwrist 27.88650562492009
rhand -34.85212975509402 -59.74234315855282
rfingers 7.12502
rthumb -8.012117811759568 -89.55497210871192
lclavicle -1.7319623917093442E-16 -9.48344636223301E-16
lhumerus 22.79025498239483 -12.794679656476335 43.63432961228325
lradius 71.31816931106603
lwrist -23.63483363953833
lhand -45.33552506744985 -73.18928759689865
lfingers 7.12502
lthumb -18.0925207179515 -43.97261258619008
rfemur -25.583587803321322 -2.1450008217238192 16.701260950755774
rtibia 54.67689902586304
rfoot -27.301399411884304 -16.455311060171876
rtoes -17.654229927118543
lfemur -21.81477195831908 1.2350351731631812 -18.17855514776576
ltibia 48.65865666373152
lfoot -23.74217368977324 -3.605522944969935
ltoes -15.43161242390818
42
root 0 0 0 1.4267292752604832 -3.538728366359633 1.890730758773367
lowerback 11.966992262314001 0.8928296522895729 -0.09831710288145157
upperback -4.4342175273715805 1.1191321053051695 -0.6293122496842875
thorax -11.554032300926988 0.5140767272795458 -0.8684435849516051
lowerneck -6.0958722236989855 1.6528599051681596 4.623736681633479
upperneck 18.44740269451339 3.156898106921823 -8.26937546606306
head 6.779651342747802 1.1634512158165875 -3.188999446746108
rclavicle -1.7445937716431005E-16 -9.704824640546972E-16
rhumerus 22.223378696586565 15.947846643863967 -46.543260091049206
rradius 74.30997233648938
rwrist 27.890865205007664
rhand -34.85526625434581 -59.75626925540595
rfingers 7.12502
rthumb -8.015193935826387 -89.5687850798138
lclavicle -1.7272271413574285E-16 -9.490011235520494E-16
lhumerus 22.79379286576167 -12.795830850510796 43.63159278579482
lradius 71.3211492716481
lwrist -23.637151376516304
lhand -45.3368255863774 -73.19718980071924
lfingers 7.12502
lthumb -18.094063108092598 -43.979106838726366
rfemur -25.584462283122214 -2.1455694434644137 16.700479834811777
rtibia 54.678342737571214
rfoot -27.30287267947831 -16.455533380156204
rtoes -17.65550965273082
lfemur -21.811393872363816 1.2341268619294004 -18.178991060608805
ltibia 48.65404727203996
lfoot -23.73883654582229 -3.6051802504967294
ltoes -15.42864694034423
43
root 0 0 0 1.4269616838418226 -3.53963364142042 1.8897016937407864
lowerback 11.967067585308413 0.8933569792903129 -0.09705917629392302
upperback -4.434545369800921 1.1199679049768951 -0.6294069689054137
thorax -11.554365326141788 0.5144541502291723 -0.8693752322760239
lowerneck -6.09542061672119 1.6529505742128465 4.624199655121746
upperneck 18.447399079521116 3.15710849435315 -8.269713535180896
head 6.77959220035086 1.1635391960549009 -3.1891841594834087
rclavicle -1.7438494298100698E-16 -9.70473317738148E-16
rhumerus 22.225691186293567 15.949342151666512 -46.54182292633874
rradius 74.31212080074759
rwrist 27.89192407155743
rhand -34.85600777807332 -59.75986626010849
rfingers 7.12502
rthumb -8.015934014419985 -89.57239915961911
lclavicle -1.7273485605047752E-16 -9.4897993311667E-16
lhumerus 22.793330401206678 -12.7956943106408 43.63195547838792
lradius 71.32076836512256
lwrist -23.63687468562696
lhand -45.336643432905774 -73.19634158725468
lfingers 7.12502
lthumb -18.09387818426557 -43.978251138447106
rfemur -25.588920195482164 -2.147694214484962 16.697306632690765
rtibia 54.6832047707765
rfoot -27.30859809958534 -16.458647143832714
rtoes -17.661910886693047
lfemur -21.80781618624175 1.2331593635413316 -18.179597589050694
ltibia 48.64856853788077
lfoot -23.734799471261574 -3.6046829252004016
ltoes -15.425224754310946
